{
	"asset":{
		"generator":"Khronos glTF Blender I/O v4.0.44",
		"version":"2.0"
	},
	"scene":0,
	"scenes":[
		{
			"name":"Scene",
			"nodes":[
				0
			]
		}
	],
	"nodes":[
		{
			"mesh":0,
			"name":"Plane.002",
			"rotation":[
				0.32758286595344543,
				0.32758286595344543,
				-0.6266493201255798,
				0.6266495585441589
			],
			"scale":[
				0.41509369015693665,
				0.41509371995925903,
				0.41509369015693665
			],
			"translation":[
				0.1610965132713318,
				-0.0004303565074224025,
				2.2829044610261917e-06
			]
		}
	],
	"materials":[
		{
			"doubleSided":true,
			"name":"Blades",
			"pbrMetallicRoughness":{
				"baseColorFactor":[
					1,
					1,
					1,
					1
				],
				"metallicFactor":0,
				"roughnessFactor":0.5
			}
		}
	],
	"meshes":[
		{
			"name":"Plane.002",
			"primitives":[
				{
					"attributes":{
						"POSITION":0,
						"NORMAL":1
					},
					"indices":2,
					"material":0
				}
			]
		}
	],
	"accessors":[
		{
			"bufferView":0,
			"componentType":5126,
			"count":390,
			"max":[
				2.499671697616577,
				0.06750121712684631,
				3.3821585178375244
			],
			"min":[
				-3.3545126914978027,
				-3.332659730403975e-07,
				-2.421018123626709
			],
			"type":"VEC3"
		},
		{
			"bufferView":1,
			"componentType":5126,
			"count":390,
			"type":"VEC3"
		},
		{
			"bufferView":2,
			"componentType":5123,
			"count":2304,
			"type":"SCALAR"
		}
	],
	"bufferViews":[
		{
			"buffer":0,
			"byteLength":4680,
			"byteOffset":0,
			"target":34962
		},
		{
			"buffer":0,
			"byteLength":4680,
			"byteOffset":4680,
			"target":34962
		},
		{
			"buffer":0,
			"byteLength":4608,
			"byteOffset":9360,
			"target":34963
		}
	],
	"buffers":[
		{
			"byteLength":13968,
			"uri":"windturbine_blades.bin"
		}
	]
}
