{
	"asset":{
		"generator":"Khronos glTF Blender I/O v4.0.44",
		"version":"2.0"
	},
	"scene":0,
	"scenes":[
		{
			"name":"Scene",
			"nodes":[
				0,
				1,
				2
			]
		}
	],
	"nodes":[
		{
			"mesh":0,
			"name":"Cylinder.001",
			"rotation":[
				0.5,
				0.5,
				-0.5,
				0.5
			],
			"scale":[
				0.08308395743370056,
				0.08308395743370056,
				0.08308395743370056
			],
			"translation":[
				0.06108524650335312,
				3.428779125213623,
				9.016522380989045e-05
			]
		},
		{
			"mesh":1,
			"name":"Sphere",
			"scale":[
				0.14409106969833374,
				0.05580059438943863,
				0.05580059438943863
			],
			"translation":[
				0.13184002041816711,
				3.4292051792144775,
				9.016522380989045e-05
			]
		},
		{
			"mesh":2,
			"name":"Cylinder",
			"scale":[
				0.08546876907348633,
				1.70427405834198,
				0.08546876907348633
			],
			"translation":[
				0.06108524650335312,
				1.6872029304504395,
				9.016522380989045e-05
			]
		}
	],
	"materials":[
		{
			"doubleSided":true,
			"name":"Blades",
			"pbrMetallicRoughness":{
				"baseColorFactor":[
					1,
					1,
					1,
					1
				],
				"metallicFactor":0,
				"roughnessFactor":0.2
			},
		    "emissiveFactor": [0.8, 0.8, 0.8]
		}
	],
	"meshes":[
		{
			"name":"Cylinder.002",
			"primitives":[
				{
					"attributes":{
						"POSITION":0,
						"NORMAL":1
					},
					"indices":2,
					"material":0
				}
			]
		},
		{
			"name":"Sphere",
			"primitives":[
				{
					"attributes":{
						"POSITION":3,
						"NORMAL":4
					},
					"indices":5,
					"material":0
				}
			]
		},
		{
			"name":"Cylinder.001",
			"primitives":[
				{
					"attributes":{
						"POSITION":6,
						"NORMAL":7
					},
					"indices":8,
					"material":0
				}
			]
		}
	],
	"accessors":[
		{
			"bufferView":0,
			"componentType":5126,
			"count":50,
			"max":[
				0.9448763132095337,
				1,
				0.8090171813964844
			],
			"min":[
				-0.9448760151863098,
				-3.2918689250946045,
				-0.9882442951202393
			],
			"type":"VEC3"
		},
		{
			"bufferView":1,
			"componentType":5126,
			"count":50,
			"type":"VEC3"
		},
		{
			"bufferView":2,
			"componentType":5123,
			"count":288,
			"type":"SCALAR"
		},
		{
			"bufferView":3,
			"componentType":5126,
			"count":257,
			"max":[
				0.9999988079071045,
				1,
				0.9999990463256836
			],
			"min":[
				-1.6391277313232422e-07,
				-1,
				-0.9999997019767761
			],
			"type":"VEC3"
		},
		{
			"bufferView":4,
			"componentType":5126,
			"count":257,
			"type":"VEC3"
		},
		{
			"bufferView":5,
			"componentType":5123,
			"count":1440,
			"type":"SCALAR"
		},
		{
			"bufferView":6,
			"componentType":5126,
			"count":482,
			"max":[
				0.9852036237716675,
				1,
				0.9852038621902466
			],
			"min":[
				-0.9852039813995361,
				-1,
				-0.985203742980957
			],
			"type":"VEC3"
		},
		{
			"bufferView":7,
			"componentType":5126,
			"count":482,
			"type":"VEC3"
		},
		{
			"bufferView":8,
			"componentType":5123,
			"count":960,
			"type":"SCALAR"
		}
	],
	"bufferViews":[
		{
			"buffer":0,
			"byteLength":600,
			"byteOffset":0,
			"target":34962
		},
		{
			"buffer":0,
			"byteLength":600,
			"byteOffset":600,
			"target":34962
		},
		{
			"buffer":0,
			"byteLength":576,
			"byteOffset":1200,
			"target":34963
		},
		{
			"buffer":0,
			"byteLength":3084,
			"byteOffset":1776,
			"target":34962
		},
		{
			"buffer":0,
			"byteLength":3084,
			"byteOffset":4860,
			"target":34962
		},
		{
			"buffer":0,
			"byteLength":2880,
			"byteOffset":7944,
			"target":34963
		},
		{
			"buffer":0,
			"byteLength":5784,
			"byteOffset":10824,
			"target":34962
		},
		{
			"buffer":0,
			"byteLength":5784,
			"byteOffset":16608,
			"target":34962
		},
		{
			"buffer":0,
			"byteLength":1920,
			"byteOffset":22392,
			"target":34963
		}
	],
	"buffers":[
		{
			"byteLength":24312,
			"uri":"windturbine_tower.bin"
		}
	]
}
