<?xml version="1.0" encoding="UTF-8" standalone="no"?>
<svg
   id="Layer_1"
   enable-background="new 0 0 512 512"
   height="1500"
   viewBox="0 0 2500 1500"
   width="2500"
   version="1.1"
   sodipodi:docname="openwindenergy-tall.svg"
   inkscape:version="1.3 (0e150ed, 2023-07-21)"
   inkscape:export-filename="../../../Downloads/openwindenergy-logo.png"
   inkscape:export-xdpi="96"
   inkscape:export-ydpi="96"
   xml:space="preserve"
   xmlns:inkscape="http://www.inkscape.org/namespaces/inkscape"
   xmlns:sodipodi="http://sodipodi.sourceforge.net/DTD/sodipodi-0.dtd"
   xmlns="http://www.w3.org/2000/svg"
   xmlns:svg="http://www.w3.org/2000/svg"><defs
     id="defs1"><filter
       style="color-interpolation-filters:sRGB"
       inkscape:label="Drop Shadow"
       id="filter3"
       x="-0.0038752935"
       y="-1.0334137e-05"
       width="1.0038866"
       height="1.0035512"><feFlood
         result="flood"
         in="SourceGraphic"
         flood-opacity="1.000000"
         flood-color="rgb(255,255,255)"
         id="feFlood2" /><feGaussianBlur
         result="blur"
         in="SourceGraphic"
         stdDeviation="0.0016580395"
         id="feGaussianBlur2" /><feOffset
         result="offset"
         in="blur"
         dx="-1.359517"
         dy="1.359517"
         id="feOffset2" /><feComposite
         result="comp1"
         operator="in"
         in="flood"
         in2="offset"
         id="feComposite2" /><feComposite
         result="comp2"
         operator="over"
         in="SourceGraphic"
         in2="comp1"
         id="feComposite3" /></filter><filter
       style="color-interpolation-filters:sRGB"
       inkscape:label="Drop Shadow"
       id="filter33"
       x="-0.080144554"
       y="-0.069699772"
       width="1.1564251"
       height="1.1429302"><feFlood
         result="flood"
         in="SourceGraphic"
         flood-opacity="1.000000"
         flood-color="rgb(255,255,255)"
         id="feFlood32" /><feGaussianBlur
         result="blur"
         in="SourceGraphic"
         stdDeviation="11.182838"
         id="feGaussianBlur32" /><feOffset
         result="offset"
         in="blur"
         dx="-1.359517"
         dy="1.359517"
         id="feOffset32" /><feComposite
         result="comp1"
         operator="in"
         in="flood"
         in2="offset"
         id="feComposite32" /><feComposite
         result="comp2"
         operator="over"
         in="SourceGraphic"
         in2="comp1"
         id="feComposite33" /></filter><filter
       inkscape:collect="always"
       style="color-interpolation-filters:sRGB"
       id="filter37"
       x="-0.11862817"
       y="-0.108394"
       width="1.2372563"
       height="1.216788"><feGaussianBlur
         inkscape:collect="always"
         stdDeviation="17.391055"
         id="feGaussianBlur37" /></filter></defs><sodipodi:namedview
     id="namedview1"
     pagecolor="#ffffff"
     bordercolor="#000000"
     borderopacity="0.25"
     inkscape:showpageshadow="2"
     inkscape:pageopacity="0.0"
     inkscape:pagecheckerboard="0"
     inkscape:deskcolor="#d1d1d1"
     inkscape:zoom="0.059748322"
     inkscape:cx="5364.1674"
     inkscape:cy="5949.9579"
     inkscape:window-width="1832"
     inkscape:window-height="1144"
     inkscape:window-x="309"
     inkscape:window-y="25"
     inkscape:window-maximized="0"
     inkscape:current-layer="g2"
     showguides="true"
     inkscape:export-bgcolor="#ffffff00" /><g
     id="g2"
     transform="matrix(1.7335512,0,0,1.7335512,-1091.6636,-222.46254)"><g
       id="g1"
       transform="translate(383.00329,77.237392)"><ellipse
         style="fill:#eaf8ff;fill-opacity:1;stroke-width:10.4601"
         id="path2"
         cx="952.41321"
         cy="376.94214"
         rx="230.95866"
         ry="237.14049"
         inkscape:label="circle" /><path
         clip-rule="evenodd"
         d="m 1165.9918,385.90898 c 4.1135,1.10261 6.7263,4.83317 6.3532,9.07131 -0.3729,4.23901 -3.588,7.4595 -7.8318,7.83102 -75.8438,6.64204 -113.7551,5.73387 -165.28078,-4.77612 4.47368,-9.51119 6.16968,-20.44257 4.20948,-31.55939 -0.273,-1.54815 -0.6224,-3.06932 -1.0281,-4.56793 52.5575,-1.39131 90.0467,4.29455 163.578,24.00111 z M 824.23097,557.30434 c 3.48716,2.44248 8.02672,2.04584 11.0335,-0.96575 53.83419,-53.82621 77.50509,-83.44602 102.57724,-129.66068 -12.01145,-3.22076 -22.57323,-10.6162 -29.70363,-20.79794 -34.85908,39.35412 -54.59608,71.73155 -86.7644,140.72529 -1.79933,3.8632 -0.62831,8.26532 2.85729,10.69908 z m 75.18127,-172.4844 c 0.38549,2.18629 0.91123,4.29379 1.5425,6.35564 z M 853.03307,184.70677 c -1.10082,-4.10623 0.82506,-8.23329 4.68009,-10.03792 3.8566,-1.7959 8.25942,-0.6217 10.69884,2.87173 43.66653,62.3524 61.83309,95.64479 78.49359,145.50004 -1.54083,0.13557 -3.09154,0.3225 -4.64843,0.597 -11.11686,1.96022 -20.79914,7.29177 -28.21025,14.75387 -27.49469,-44.81991 -41.31547,-80.13957 -61.01384,-153.68472 z m 135.49211,184.40014 c -3.60533,-20.44685 -23.18205,-34.15843 -43.63851,-30.55141 -20.45123,3.60609 -34.15768,23.18642 -30.55233,43.63327 3.60762,20.45996 23.18373,34.16805 43.63495,30.56195 20.45646,-3.60702 34.16368,-23.18296 30.55589,-43.64381 z"
         fill-rule="evenodd"
         id="path1"
         sodipodi:nodetypes="ccccscccccccccccccccsccsssss"
         style="display:inline;opacity:1;mix-blend-mode:normal;fill:#ffffff;fill-opacity:1;stroke:none;stroke-width:0.888;stroke-dasharray:none;filter:url(#filter37)"
         inkscape:label="windblades_shadow" /><path
         clip-rule="evenodd"
         d="m 1165.5719,385.8338 c 4.1135,1.10261 6.7263,4.83317 6.3532,9.07131 -0.3729,4.23901 -3.588,7.4595 -7.8319,7.83102 -75.8437,6.64204 -113.7551,5.73387 -165.28072,-4.77612 4.47372,-9.51119 6.16962,-20.44257 4.20942,-31.55939 -0.2729,-1.54815 -0.6223,-3.06932 -1.0281,-4.56793 52.5576,-1.39131 90.0468,4.29455 163.5781,24.00111 z M 823.81104,557.22916 c 3.48716,2.44248 8.02672,2.04584 11.0335,-0.96575 53.83418,-53.82621 77.50508,-83.44602 102.57723,-129.66068 -12.01145,-3.22076 -22.57323,-10.6162 -29.70363,-20.79794 -34.85908,39.35412 -54.59607,71.73155 -86.76439,140.72529 -1.79933,3.8632 -0.62831,8.26532 2.85729,10.69908 z m 75.18126,-172.4844 c 0.38549,2.18629 0.91123,4.29379 1.5425,6.35564 z M 852.61314,184.63159 c -1.10082,-4.10623 0.82506,-8.23329 4.68009,-10.03792 3.8566,-1.79589 8.25941,-0.6217 10.69883,2.87173 43.66653,62.3524 61.83309,95.64479 78.49359,145.50004 -1.54083,0.13557 -3.09154,0.3225 -4.64843,0.597 -11.11686,1.96022 -20.79914,7.29177 -28.21025,14.75387 C 886.13228,293.4964 872.3115,258.17674 852.61314,184.63159 Z m 135.4921,184.40014 c -3.60533,-20.44685 -23.18205,-34.15843 -43.63851,-30.55141 -20.45123,3.60609 -34.15768,23.18642 -30.55233,43.63327 3.60762,20.45996 23.18373,34.16805 43.63495,30.56195 20.45646,-3.60702 34.16368,-23.18296 30.55589,-43.64381 z"
         fill-rule="evenodd"
         id="path32"
         sodipodi:nodetypes="ccccscccccccccccccccsccsssss"
         style="display:inline;mix-blend-mode:normal;fill:#6e91eb;fill-opacity:1;stroke:none;stroke-width:0;stroke-dasharray:none;stroke-opacity:1"
         inkscape:label="windblades" /></g><text
       xml:space="preserve"
       style="font-size:153.827px;fill:#000000;fill-opacity:1;stroke-width:0.888"
       x="653.70917"
       y="880.82019"
       id="text1"><tspan
         sodipodi:role="line"
         id="tspan1"
         x="653.70917"
         y="880.82019"
         style="font-style:normal;font-variant:normal;font-weight:300;font-stretch:normal;font-size:153.827px;font-family:'Open Sans';-inkscape-font-specification:'Open Sans, Light';font-variant-ligatures:normal;font-variant-caps:normal;font-variant-numeric:normal;font-variant-east-asian:normal;fill:#000000;fill-opacity:1"
         dx="48.273373">Open Wind Energy</tspan></text></g><rect
     style="display:none;fill:none;fill-opacity:1;stroke:#000000;stroke-width:0.888;stroke-opacity:1"
     id="rect2"
     width="1080"
     height="1080"
     x="0"
     y="0" /></svg>
